<svg id="Capa_1" data-name="Capa 1" xmlns="http://www.w3.org/2000/svg" viewBox="0 0 250 250"><defs><style>.cls-1{fill:#fff;}.cls-2{fill:#272727;}</style></defs><circle class="cls-1" cx="125" cy="125" r="115.58"/><path class="cls-2" d="M125,112c18.6,0,37.2,0,55.8,0,9.22,0,17.45,2.16,17.5,13.17s-8.15,12.91-17.45,12.87q-55.8-.21-111.6,0c-9.29,0-17.52-1.67-17.51-12.82,0-11,8.22-13.24,17.46-13.22C87.78,112,106.38,112,125,112Z"/><path class="cls-2" d="M125,56.58c18.6,0,37.2,0,55.8,0,9.22,0,17.45,2.16,17.5,13.16.05,11.17-8.15,12.92-17.45,12.88q-55.8-.21-111.6,0c-9.29,0-17.52-1.67-17.51-12.83,0-11,8.22-13.23,17.46-13.21Q97.08,56.62,125,56.58Z"/><path class="cls-2" d="M125,167.4c18.6,0,37.2,0,55.8,0,9.22,0,17.45,2.16,17.5,13.17.05,11.16-8.15,12.91-17.45,12.87q-55.8-.21-111.6,0c-9.29,0-17.52-1.67-17.51-12.82,0-11,8.22-13.24,17.46-13.22C87.78,167.43,106.38,167.4,125,167.4Z"/></svg>