<svg id="Layer_1" data-name="Layer 1" xmlns="http://www.w3.org/2000/svg" xmlns:xlink="http://www.w3.org/1999/xlink" viewBox="0 0 180 180"><defs><style>.cls-1{mask:url(#mask);filter:url(#luminosity-noclip-2);}.cls-2{mix-blend-mode:multiply;fill:url(#linear-gradient);}.cls-3{fill:#ffe42c;}.cls-4{fill:#f9d203;}.cls-5{fill:#24387f;}.cls-6{fill:#c6181e;}.cls-7{fill:url(#linear-gradient-2);}.cls-8{fill:url(#linear-gradient-3);}.cls-9{fill:#fff;stroke-width:2px;}.cls-10,.cls-11,.cls-14,.cls-15,.cls-9{stroke:#fff;stroke-miterlimit:10;}.cls-10,.cls-11,.cls-15{fill:#242635;}.cls-10{stroke-width:0.5px;}.cls-12{mask:url(#mask-2);}.cls-13{fill:url(#linear-gradient-4);}.cls-15{stroke-width:0.75px;}.cls-16{filter:url(#luminosity-noclip);}</style><filter id="luminosity-noclip" x="64.44" y="-8282" width="51.12" height="32766" filterUnits="userSpaceOnUse" color-interpolation-filters="sRGB"><feFlood flood-color="#fff" result="bg"/><feBlend in="SourceGraphic" in2="bg"/></filter><mask id="mask" x="64.44" y="-8282" width="51.12" height="32766" maskUnits="userSpaceOnUse"><g class="cls-16"/></mask><linearGradient id="linear-gradient" x1="103.19" y1="169.9" x2="82.77" y2="118" gradientUnits="userSpaceOnUse"><stop offset="0" stop-color="#fff"/><stop offset="1"/></linearGradient><linearGradient id="linear-gradient-2" x1="90" y1="133.93" x2="90" y2="-49.03" gradientUnits="userSpaceOnUse"><stop offset="0" stop-color="#fff"/><stop offset="1" stop-color="#bfbfbf"/></linearGradient><linearGradient id="linear-gradient-3" x1="90" y1="71.34" x2="90" y2="194.11" xlink:href="#linear-gradient-2"/><filter id="luminosity-noclip-2" x="64.44" y="129.64" width="51.12" height="13.48" filterUnits="userSpaceOnUse" color-interpolation-filters="sRGB"><feFlood flood-color="#fff" result="bg"/><feBlend in="SourceGraphic" in2="bg"/></filter><mask id="mask-2" x="64.44" y="129.64" width="51.12" height="13.48" maskUnits="userSpaceOnUse"><g class="cls-1"><path class="cls-2" d="M102.76,137.24v-7.6h12.8v7.65C111.48,137.1,107.19,137.08,102.76,137.24Zm-9.09.56,2.73-.22v-7.94H83.6V139Q88.51,138.26,93.67,137.8Zm-16.43,2.27V129.64H64.44v13.47C68.42,142,72.71,140.93,77.24,140.07Z"/></g></mask><linearGradient id="linear-gradient-4" x1="103.19" y1="169.9" x2="82.77" y2="118" gradientUnits="userSpaceOnUse"><stop offset="0" stop-color="#fff"/><stop offset="1" stop-color="#fff"/></linearGradient></defs><path class="cls-3" d="M152.32,59.17h.52A.67.67,0,0,0,152.32,59.17Z"/><path class="cls-4" d="M152.32,59.17c-1.12,0-1.67,0-1.86-2a10.44,10.44,0,0,1,0-1.48,15.24,15.24,0,0,1,.54-1.75,22.68,22.68,0,0,0-.18-2.77,4.54,4.54,0,0,0-2.58.6c-.86.33-1.77.17-2.62.5-2,.79-3.9,1.08-5.8,2.6a30.51,30.51,0,0,0-2.47,1.94A4.45,4.45,0,0,1,134.4,58c-.53,0-.81-.44-1.31-.59a4.72,4.72,0,0,0-1.3,0c-.9,0-1.71.46-2.6.23a2,2,0,0,1,1.45-.85c.16-.7-.25-1.24-.17-2,.1-.9.89-1.53,1.28-2.1s1.42-2.06.43-2.57c.09-1,2-1.67,2.63-2.17a3.18,3.18,0,0,0,1.43-2.9c-1.66-.25,0-3.27,0-4-.6,0-.74-1.08-.87-1.79A19.44,19.44,0,0,1,135,37c-.07-1.53.65-4.27-.74-5.14-1-.63-2.24.36-3.16.53-1.22.23-2.5-.19-3.72,0-.24,1.69,1.35,1,2,1.17-.49.48-1.23.15-1.81.22s-1.27.64-1.83.54c-.38-2.1-1.24-.9-2.28-.54-.47.17-1.32.26-1.69.78s-.26,1.18-1,1.46-1.22-.08-1.83-.29a10,10,0,0,0-1.72-.28c-.59-.11-2.37-.66-3.24-.26a31.19,31.19,0,0,0,2.92-2.94,5,5,0,0,1,2-1.68c.08-.79,2.2-4.39.61-4.62.29-.84,1.28-.46,1.82-.56a1.54,1.54,0,0,0,0-.77,1.88,1.88,0,0,1-.33-.27c.65-.18,1.22,0,1.82-.41-.11-1.1.78-1.22,1.31-1.44.07-.76.64-.81.76-1.61-.71-.17-.88.23-1.47.45s-1.07-.24-1.69-.22a4.94,4.94,0,0,0-1.67.64,13,13,0,0,1-1.84.27c-.12,1.65-2.23.8-2.84.81-1.51,0-3.1.81-4.64.91-.26,2.1-2.89,2.17-3.93,1.91.26-.77.94-.78,1.46-.87-.2-.35-.55-.16-.89-.27-.08-.91.86-.81,1.07-1.61-.43-.69-1.79,1-2.35,1.31.39,0,.82.2.86.88-.48,0-1.47.55-.93,1.43-.48.11-1-.09-1.48.05s-.88.56-1.49.58a5.08,5.08,0,0,0-1.46.07c-.43.15-.88.72-1.32.76a1,1,0,0,1,.48-1.14c-1.11.11-2.19.57-3.29.65a.62.62,0,0,0,0,.48c.41.09.84,0,1.26.09.09,1-3.26,1.16-3.9,1.41s-1.35.39-2,.62a7.18,7.18,0,0,1-1.5.51,4.2,4.2,0,0,0-1.12.06c-.81.33-1.6,1-2.43,1.39s-1.86.61-2.81.94-1.42-.2-2.24-.09c-1,.14-2-.29-2.92.34l-.7.44a7.26,7.26,0,0,1-2.53,1c-2,.31-3.57,2.91-5.6,3.24a15.7,15.7,0,0,1-2.27-.12c-1.18,0-2,.8-3.15,1.28a7.68,7.68,0,0,1-2.24.21c-.83.13-1.49.93-2.24,1.16-.36.11-.77-.12-1.13,0A4.8,4.8,0,0,0,59,41a9.86,9.86,0,0,0-2.1,1.36c-.63.58-1.18.77-1.45,1.79-.22.82.07.73-.37,1.38s-.89.71-1.25,1.46c.76.16,1.58-.07,2.34.1a4.25,4.25,0,0,1-.32,1.32c.47.37,1.27.08,1.48.92.16.63-.48,1.69-.6,2.26-.51.13-.81,0-1.23.41s-.49,1-1,1.15c.36.59,0,1.37-.34,1.91.46.09,1,0,1.41.08,0,.3.09.77.06,1.07.51.31,1.14-.73,1.61-1A13.54,13.54,0,0,1,59.32,54a11.27,11.27,0,0,0,2.59-1.47c0,.68-.37.93-.66,1.36.44.18.67-.23,1.06-.46a6.64,6.64,0,0,1,1.31-.42c.77-.26,1.22-.81,2.05-.8,1,0,1.39-.33,2.2-1.23s1.29-.7,2.1-1.14c1.55-.84,3.33-.63,4.86-1.36.69-.32,1.26-1.32,1.9-1.68.35-.19.73,0,1.08-.05l.1,0a16,16,0,0,1-1.54,1.54A9.78,9.78,0,0,1,73,49.67c-1.82.32-3.33,2.63-5.2,2.63-.56,2.5-1.88,2.25-3.39,2.25-.65,0-1.61-.27-2.21.06s-1.1,1-1.72,1.3a14.23,14.23,0,0,1-2.24.65c-.84.29-1.44,1.36-2.05,2.31C54.8,61,53.2,60.6,51.7,61.81c-.15,1.43-1.92,1.63-2.65,1.67a5.26,5.26,0,0,0-3,.79c-1,.61-2.15.84-3,1.79-.11.12-.22.58-.4.8a2.5,2.5,0,0,1-.94.65c-.54.18-.89-.17-1.46,0-.26,2.15-2.92,1.7-3.78,2.83s-2.47,3-2.45,4.84c-.21,0-.76.39-.69.84.1.64.84.31,1.09.3.58,0,.57-.37.9.64a8.43,8.43,0,0,1,.25,2c.2,0,.5.14.69.09,0,.3.09.76.06,1.06a3.75,3.75,0,0,0,1.62-.2c.27,1,.34,1.78,1.15,1s1.25-1.49,2.24-1.67c.7-.13,1.38-.09,2.07-.27s1.06-.94,1.61-1.13a2.94,2.94,0,0,1-2,1.69,10.65,10.65,0,0,0-1.13,0c-.52.12-.53.44-.92.8s-.67.36-.91.71-.2,1-.45,1.31c-.45.63-1.19.66-1.77.93a6.18,6.18,0,0,1,1.22,0c.06.63,0,1.29.06,1.93,1.17.24,1.44.32,1.5,2.3a.64.64,0,0,0,.18.06A5.33,5.33,0,0,0,39.49,89c-.57.63-1.07.45-1.65.92-.92.73-1.73,1.91-2.8,2a5.7,5.7,0,0,0-1.87.58,13.35,13.35,0,0,0-1.67.65,6.24,6.24,0,0,0-1.89,1.29,21.87,21.87,0,0,0-1,2.11,1.63,1.63,0,0,1,.85,0c-.36,1.47-1.35,1.18-2,2s-1.16,2.66-2.21,2.92c-.05,1-.87,1-.95,1.93,1.11-.22.34,2,1.42,1.81a7.8,7.8,0,0,0-.48,1.07c.37-.34.83-.53,1.23-.89a1.72,1.72,0,0,1,1.71-.47,6.91,6.91,0,0,1,0,2c-.34,1-.5.22-1.06.32a15.27,15.27,0,0,0,0,2.53c.67-.79,1.49.37,2,1,.36-.42.72,0,1.08.19s.54.6,1.16.51.78-.55,1.3-.8a2.93,2.93,0,0,1,1.66,0c0,.22.08.56.06.78.82.35,1.25-.85,2-1.18s1.21.12,1.91.08,1.28-.9,1.87-1.23a4.14,4.14,0,0,1,2.42-.51,4.58,4.58,0,0,0,2.26-.28c.77-.4,1.43-1.26,2.23-1.67a17.57,17.57,0,0,0,2.32-2c.55-.43,2.13-1.44,1.37.69-.27.75-1,1.11-1.41,1.57s-1,1.38-1.49,2a6,6,0,0,0-1.53,2.19c.81,0,1.88-1.49,2.66-1.93a11.77,11.77,0,0,1,1.81-.55A5.93,5.93,0,0,0,53,107.62a16.7,16.7,0,0,1,1.67-1.9,9.22,9.22,0,0,1,3.12-1.85c.83-.24,1.64-.6,2.47-.8a4.7,4.7,0,0,0,2.1-.58c1-.84,1.65-2.95,2.78-3.6.82-.48,1.76-.66,2.61-1.08S69.2,97,70,96.58a3.42,3.42,0,0,1,1.1-.27,7.06,7.06,0,0,0,2.12-1.16,19.32,19.32,0,0,0,3.11-1.78,6.91,6.91,0,0,1,3.17-1.74c1.26-.36,2.5-.46,3.75-.88a12.24,12.24,0,0,1,1.68-.21c.62-.12.63-.34,1.15-.87.71-.72,1.65-1.17,2.39-1.79a7,7,0,0,1,2.44-1.6c1-.28,2-.35,3-.62,1.33-.37,2.61-1.17,3.93-1.51,1.09-.29,2.07-1.22,3.17-1.69s2.29-.2,3.39-.6c1.31-.47,2.53-1.49,3.89-1.68a5.61,5.61,0,0,0,1.16-.05c.55-.19,1-1,1.63-.77,0,.56-.3.76-.53,1,1.55.56,2.75-1.12,4.09-1.74a29.88,29.88,0,0,1,3.19-1.62,8.8,8.8,0,0,1,2.35,0c1.69,0,3.38-1.16,5.09-1.46a12.48,12.48,0,0,1,2.22-.28c.46,0,1.35-.57,1.74-.24a5.9,5.9,0,0,1,.57,2.5c.62-.11,1.22.51,1.8.7a16.65,16.65,0,0,0,1.69.26l.06.48c2.05.43,4.25-.42,6.29.09,0,.3.09.76.06,1.06.66.31,2.33-.77,2-2.21l-.31-.09c-.38-1.35.82-1.24,1.28-1.39.76-.24,1.21-.46,1.28-1.68-.45-.1-.8-.58-1.25-.68a7.63,7.63,0,0,1,0-2.77c.38-.72,1.16-.44,1.48-1.44-.3-.1-.59,0-.9-.1.15-1.13,2-3,2.76-2.88a1.82,1.82,0,0,0-.49-1.93l.18-.23a1.1,1.1,0,0,0-.25.17,4.46,4.46,0,0,0-1.15-.59,4.9,4.9,0,0,1,1.71,0c.12-.2.25-.39.39-.58a2.41,2.41,0,0,1,1.7-1.08c.44-.12.69-.54,1.11-.8a5.8,5.8,0,0,1,2.41-.69A2,2,0,0,1,152.32,59.17ZM47.15,100.57c-.46.17-.73-.26-1.08-.26s-.51.46-.91.27c-.07-.78.16-4.24,1.05-3.42a.75.75,0,0,1,.57,0c0,.3.09.76.06,1.06.47.1,1,0,1.44.09C48.47,99.67,47.32,99.35,47.15,100.57Zm3-16.66a6.67,6.67,0,0,0-.74.29c-.14.08-.49.49-.59.53-.59.19-1.24-.11-1.83.06s-.76.5-1.26.94a8,8,0,0,1-1.36.78,6.15,6.15,0,0,1-1.49.87c-.54.12-1,0-1.56.13.26-.23.49-.61.77-.78.49-.31,1-.1,1.54-.2.78-.14,1.09-.74,1.68-1.46A9.08,9.08,0,0,1,47,83.71c.38-.32.67-.89,1.1-.95.64-.08.85.5,1.5,0s.84-1.13,1.68-1.16a5,5,0,0,0,1.18-.08,3.05,3.05,0,0,0-1,1C50.91,83.52,51,83.6,50.16,83.91ZM61,68.66a5.27,5.27,0,0,0-3.28,3.08c.17-1.27.84-1.9.64-3.33-.57.07-1,.72-1.47,1.18a1.78,1.78,0,0,1-1.43.53,2.86,2.86,0,0,0,1.23-1.84l0,0a5.39,5.39,0,0,1-1.76.61,1.48,1.48,0,0,1-.94.64,1.59,1.59,0,0,1,.94-.64c.53-.63,1-1.48,1.77-1.36a2,2,0,0,1,0,.73c.71-.56,1.33-1.31,2-2-.29.21-.67.55-.86.09.42-.15,1.7,0,1.46-1.17-.35-.08-.72,0-1.07-.09a2.8,2.8,0,0,1,0-1.08c.61.15,2,.84,2.06,2A.76.76,0,0,0,61,66s0-.87,0-1c0-.42.34,1.2.24,1,.25.51.53.81,1,.71,1-.2,1.71-2,2.78-1.51A4.74,4.74,0,0,1,61,68.66ZM87.11,64.3c-.17.15-.35-.06-.52.1a2.85,2.85,0,0,1-1.12.81c-.42.12-.78,0-1.17.2s-.32.91-.86.62c-.14-.58.12-.89.13-1.32s-.3-.71,0-1.31c.44-.82,1.13-.5,1.69-.5h.19a1.3,1.3,0,0,1,.73.06c-.26.35-.55.46-.51,1.09.06.87.37.45.58.31s.26-.73.5-.9.66,0,.89,0C87.35,63.63,87.33,64.1,87.11,64.3Zm41.14,6.17c-.36.4-.75.33-1.13.49-.65.27-.64.71-1.11,1.18-1.22,1.19-3.23,1.42-4.68,1.42a13.1,13.1,0,0,0-2.8.28c-.9.19-1.73,1.28-2.62,1.66a4.3,4.3,0,0,1-2.57.3c-1-.18-1.63.47-2.6.65.53-.31.93-1.24,1.43-1.47s1.34,0,1.87,0a2.68,2.68,0,0,0,1.68-.52c.57-.35,1.07-.2,1.69-.33s1.07-1,1.68-1.18a6,6,0,0,1,1.72-.28c1.06,0,2.13,0,3.19,0a3.05,3.05,0,0,1-.41,0c-.08-1.09,1.13-1.1,1.64-1.16-.27,0-.21-1-.13-1.21s.58-.47.78-.59A11.45,11.45,0,0,1,128,69c.32-.13,1.86-.4,2-.66A25.12,25.12,0,0,1,128.25,70.47Zm14.18-8.14c.34.09,2.08,1.27,1.55,1.88C143.07,63.86,142.23,63.5,142.43,62.33Z"/><path class="cls-3" d="M146.75,64.8a1.21,1.21,0,0,0-.8-.52l-.31.45A.94.94,0,0,1,146.75,64.8Z"/><path class="cls-5" d="M151.62,96.25a6.94,6.94,0,0,1,.15-2,13.42,13.42,0,0,0-.19-2.31c-.06-.73,0-1.56,0-2.3a12.27,12.27,0,0,0,.16-2.55c-1-.18-1.54.79-2.58.82-.5,0-1,0-1.5,0-.66,0-.89.33-1.47.55-.3-1.46,2.05-2.22,2.55-2.61a2.92,2.92,0,0,1,1.11-2.27c-1.43.07-3.2-.45-4.57.08-.65.25-3.81,3.08-3.62.55-.68,0-1.44-.34-2.22-.33-.52,0-1.83,0-2.17-.59.45.15.82-.19,1.24-.28a10.71,10.71,0,0,0,1.68-.28c.64-.24,1.91-.37,2.25-1.14.27-.61.13-1.4.55-2,.28-.43.75-.82,1.07-1.22s.53-.79.79-1.08.91-.46,1.11-1.08a2.29,2.29,0,0,0-2,.29c-.54.42-.9,1.29-1.49,1.67a6.25,6.25,0,0,1-2.06.58c-.8.15-1.65.15-2.43.29-1.46.27-2.8,1.06-4.29.85a2.91,2.91,0,0,1-2-.94c-.63-.7-.5-1.46-1.16-1.93-.28-.2-.71-.2-.9-.64s.09-1.2,0-1.69c-.29-1.18-1.21-.85-1.87-.85-1.67,0-3,.92-4.49,1.94a6.93,6.93,0,0,1-2,.72,19.58,19.58,0,0,0-2.09,1.14,4,4,0,0,1-2.06.81,12.65,12.65,0,0,0-2.43.58c-.72.14-1.39-.07-2,.28a15.4,15.4,0,0,1-2.39,1.22,4.08,4.08,0,0,1-2.09.24c-.9-.22-1.13-.66-2.06-.24-.71.33-1.28,1-2.05,1.09s-1.64-.11-2.43.34-1.53.75-2.24,1.15c-.41.23-.86.87-1.27,1.17a2.42,2.42,0,0,1-1.34.49c-1.51.32-2.73,1.45-4.11,2.25a4.86,4.86,0,0,1-2.48.64,4.85,4.85,0,0,0-2.38.88,22.82,22.82,0,0,0-2.2,1.2c-.59.44-1.11,1.69-1.71,2-1.39.64-3.2.27-4.68.27-1.24,0-2-.48-3.13.65a10.3,10.3,0,0,1-2.85,2.24c-1,.43-1.93,1.47-3,2.08a9.72,9.72,0,0,0-1.68,1c-.55.47-.9,1.52-1.47,1.78-.06-.64,0-1.31-.06-1.95a3.28,3.28,0,0,0-3.38,1.39c-.51.67-.82,1.38-1.49,1.66a4.32,4.32,0,0,1-2,.31c-.08-.69.4-.78.6-1.32a4.08,4.08,0,0,0,.09-1.75c-.28-.21-.54-.44-.86-.29a4.66,4.66,0,0,0-.26,1.64.18.18,0,0,1-.3,0,15.55,15.55,0,0,1-.44-2.8.45.45,0,0,0-.5,0c0,.8-.26,1.48-.24,2.22a1.51,1.51,0,0,0-.88.38c-.22.84.35.76.36,1.38,0,1-.47,1.16-.95,1.52A26.84,26.84,0,0,1,54.53,104c.51-.62,1.61-4.48.34-4.25a6.43,6.43,0,0,1-.92,3.49,18.19,18.19,0,0,1-1.72,3c-1.32,1.31-2.87,1.86-4.29,2.84-1,.69-1.93.86-2.9,1.44s-1.6,1.34-2.46,1.77a16.48,16.48,0,0,1-2.67.73,23.58,23.58,0,0,0-4.13,1.56c-.56.29-1.09.34-1.67.65s-1.19.91-1.84.91c0,.16,0,.31-.06.47l-.31.11-.06.47c-.42.07-.88.58-1.21.93a6.42,6.42,0,0,1,1.58,0,1.38,1.38,0,0,1-.05.91,4.82,4.82,0,0,1,.83-1c.73-.62,1.23-.41,2-.57s1.19-.8,1.87-1.15c.5-.26,1.46-.77,2-.59-.5.26-1.7,1.22-1.09,2.23-.21.45-.62.77-.78,1.22-.36,1.05.19,1.22.21,2s-.44,1.1-.17,1.69a3.55,3.55,0,0,0,1.11.38,6.09,6.09,0,0,0,1.37,3.06c.27.23,1.35,0,.77,1-.27.48-1.14.17-1.52.25-.27,1.09.39.7.68,1.17a4.44,4.44,0,0,1,.44,1.62c.14,0,.37.13.5.09.19.76-.19,1.45-.16,2.26.06,1.23.35,1.13,1.1,1.19,0,.45,0,.91.05,1.36.56.24,1.29-.29,1.8-.6.27-.16.27-.42.6-.52s.77.16,1.13-.05a5.51,5.51,0,0,0,1.26-1.44c.19-.42,0-.92.21-1.4a.94.94,0,0,1,1.11-.51c.08,1.32,1.34.67,1.9.8.72.17.76.89,1.25,1.53.68.87,1.36.6,1.91-.08A3.3,3.3,0,0,1,55,131.71a16.78,16.78,0,0,0,4.52-1.65c.75-.34,1.54-.64,2.34-.94.26-.1.74-.11,1-.33.48-.43.7-1.11,1.25-1.4-.48.14-.69-.63-.33-1.1.21-.27,1.08-.05,1.33,0,1,0,1.52-.49,2.42-1.23a11.37,11.37,0,0,1,4.86-2.52c1.84-.38,3.77,0,5.6-.29s3.41-2,5.22-2.3a8.26,8.26,0,0,0,3.19-1.22c1-.6,2-1.09,3-1.72a22.54,22.54,0,0,1,7.16-3.33c1.14-.26,2.3-.79,3.45-.93a23,23,0,0,1,3,0,30.75,30.75,0,0,1,5.69.31c2.42.44,4.88-1.42,7.06-2.68,1.18-.69,2.31-2.34,3.54-2.52a23.69,23.69,0,0,1,3.37,0,16.91,16.91,0,0,0,3.17-.35,5.88,5.88,0,0,0,1.87-.88,4.14,4.14,0,0,1,1.68-.48c1-.25,2-1.45,3-1.76a11,11,0,0,1,2.8,0,1.33,1.33,0,0,0,0,.52c.6,0,1.2.33,1.84.33a7.93,7.93,0,0,0,2-.29c1.32-.34,2.37-1.63,3.74-1.73.64,0,1.49.08,1.88-.85.14-.34-.09-.84.11-1.25s.86-.36,1.18-.48a9.21,9.21,0,0,1,2.43-.87,3.77,3.77,0,0,0,.89-.06c.36-.13.47-.73.94-.47,0,.16,0,.32.07.48.69.47.9-1.09,1.27-1.69S152.75,96.6,151.62,96.25ZM57.38,122.14c-.08,0-.17.09-.25.15a3.72,3.72,0,0,1-1.33.5c-1,.68-2,2-3,1.68l-.07-.48c-.54-.13-1,.24-1.23-.62a6.5,6.5,0,0,1,0-2,8.76,8.76,0,0,1,3.88-.11c-.48,0-1.6.63-1.46,1.46a5.34,5.34,0,0,0,1.87,0,2.37,2.37,0,0,1,.53-.3l1.05-.35A16.19,16.19,0,0,0,60,120.75,6.35,6.35,0,0,1,57.38,122.14Zm38-19.22c.46.07.43.5.78.81s.6.2.88.39c0,1.32-1.46,1.18-2,1.4s-.91.75-1.54,1.17a2.39,2.39,0,0,1-1.38.28C93.51,106.85,93.94,102.71,95.37,102.92ZM99,108.24a26,26,0,0,0-2.33,1.59c-1,.76-2.07,1.56-3.15,2.22-1.62,1-3.3,1.68-4.89,2.81a6.43,6.43,0,0,1-2.58,1.3,6.83,6.83,0,0,0-2.77.5A13.72,13.72,0,0,1,81,117.83a7.52,7.52,0,0,1-1.3.27l0,.08-.05-.07a3.33,3.33,0,0,0-1.25.43c-.6.37-1.89,1.5-2.42.57.76-.06,3.09-2,3.67-1h0l-.34-.78c1.19.43,2.62-1.41,3.73-1.73A15,15,0,0,0,84.9,115c1.61-.7,3.36-.3,4.92-1.13s2.82-1.68,4.21-2.54a23.25,23.25,0,0,0,3.67-2.55c1-.89,2-2.55,3.19-2C100.47,107.63,99.6,107.87,99,108.24Zm26.86-26c-.34,0-.8-.16-1.12,0s-.44.82-.79,1c-.59.37-1.4.14-2,.35a5.88,5.88,0,0,1-2.06.29c-.8,0-1.62,0-2.42,0a8,8,0,0,0-2.44.94,23.26,23.26,0,0,0-2.61,1.58c-1,.59-2.16.33-3.27.37,1.25-1,1.82-2,3.26-2A14.91,14.91,0,0,0,117,83.65a9.6,9.6,0,0,1,3.35-.59c1.18,0,1.85-1.08,3-1.2a.77.77,0,0,0-.52-.89c.71-1.15,1.48-.61,2.35-.32.6.19,1.86-.3,2.24.47A2.27,2.27,0,0,1,125.81,82.19Zm16.06,17.58a3.43,3.43,0,0,0-1.16.79c-.54.46-2.67,1.19-2.6-.47-.14,0-.37-.13-.51-.09-.49-2,2.72-1.41,3.09-1.9-.08.11-.57,1.2-.28,1.33.6.26.79-.38,1.27-.55a3,3,0,0,1,1.48.07C143,99.59,142.28,99.62,141.87,99.77Z"/><path class="cls-6" d="M152.63,102.92c-.15-.23-.17-.38-.42-.53a1,1,0,0,0-1.17,0,2.34,2.34,0,0,1-1.34.54c-.46,0-.68-.64-1.19-.59a.73.73,0,0,1,.15-.57c-.38-.08-.76.76-1.17.57-.05-.62,0-1.1-.48-1-.2,0-.34.23-.56.26s-.44,0-.66,0a2.55,2.55,0,0,0-1,.61,1.4,1.4,0,0,1-1,.4,5.43,5.43,0,0,0-1.12.29c-.43.08-.88-.12-1.31,0s-.77.58-1.19.76-.61.14-.9.25-.3.24-.48.33c-.49.24-1.08-.29-1.59-.28s-1,0-1.45.06a12.37,12.37,0,0,1-1.24.14,1.53,1.53,0,0,1-1.13-.27,1.34,1.34,0,0,0-1.2-.14c-.4.14-.5.65-.94.68s-.34-.64-.83-.59a1.46,1.46,0,0,0-.8.32,9.33,9.33,0,0,1-1.1.8,11.78,11.78,0,0,1-1.69.61,6.36,6.36,0,0,1-3.6.35,7.52,7.52,0,0,0-2.59-.14c-.94.07-1.62,1.14-2.52,1.45a9,9,0,0,0-2.43,1.54c-.42.33-.74.78-1.18,1.07a10.9,10.9,0,0,1-2.3,1,5.47,5.47,0,0,1-1.55.36,13.5,13.5,0,0,0-2.38,0c-.41.1-.6.39-1,.38a2.32,2.32,0,0,1-1.3-.19c-.22-.14-.32-.31-.56-.36a2.54,2.54,0,0,0-.87,0c-.27.06-.49.3-.77.32s-.38-.21-.55-.47-.21-.49-.46-.46-.69.49-1,.68-.44.31-.68.46-.41.12-.56.28-.07.18-.14.24a.92.92,0,0,1-.69.23c-.2-.1-.11-.39-.13-.61-.31-.09-.41.17-.46.44a1.87,1.87,0,0,1,0,.42c-.09.15-.35.07-.53.1a20.35,20.35,0,0,0-2.51.7c-1.26.38-2.47,1.26-3.73,1.69-1.1.38-2.17.68-3.27,1a2.79,2.79,0,0,0-1.33.83,5,5,0,0,1-1.31,1,24,24,0,0,1-3,.9c-.4.15-.81.13-1.21.26s-.73.32-1.12.46c-1.53.57-3,1.55-4.56,2a21.13,21.13,0,0,1-2.17.59c-.37.07-.74.06-1.11.15s-.94.21-1.41.28a8.32,8.32,0,0,0-2.24.71c-.94.41-1.7,1.27-2.7,1.3-.45,0-1.63,0-1.51,1.13-.45.09-2.69-.16-2.61,1,0,.56.47.09.1.68-.18.3-.45.34-.66.47-.56.34-.9,1.21-1.49,1.55s-1,.21-1.49.46-.93.65-1.4.88a2.67,2.67,0,0,1-1.5.14c-.41,0-1-.12-1.38.28-.47.55.11,1.13-.17,1.81.63.4,1.17-.82,1.81-.46a1.69,1.69,0,0,1-.67,1.41,7.23,7.23,0,0,0,3.71-2,7.41,7.41,0,0,1,3-1.75,1.68,1.68,0,0,0,1.15-2,4.21,4.21,0,0,1,1.62,0c.1,1.69,1.11.22,1.57,0a9.09,9.09,0,0,1,2.53-.35,10.46,10.46,0,0,0,2.24-.06,12.59,12.59,0,0,1,2.28-.81,21.58,21.58,0,0,1,4.29.3c.91,0,1.47-1.16,2.24-1.46a1.72,1.72,0,0,1,.78,0L81,126c-.62.28-1.14,1.26-1.68,1.74-1.24,1.08-2.8.16-4.15,1.16A10.1,10.1,0,0,1,73.33,130c-.23.1-.81.56-1,.54-.41,0-.55-.81-1.06-.47a1.22,1.22,0,0,1,.52,1.34c-.46,0-2.09.28-2,1.14,1,.35,1.66-1.57,2.57-1-.18.34-.59.54-.71,1,.16,0,.37.13.53.11-.06.81-1.77.86-2.23,1.09a21.17,21.17,0,0,0-3.18,2.62c-.45.36-.83.1-1.3.32s-1,1-1.5,1.4S61.53,139,61.4,140a1.48,1.48,0,0,1,.23,2c.34.64.66.67.88,1.5s-.18,1.24.74,1.45,2.4-.77,2.26,1.39c1,.2,1.79-.46,2,1.48.16,1.57.78,2.2,1.92,1.74.69-.28,1.32-1.69,1.85-2.39a1.84,1.84,0,0,1,1.13-.79c.4-.15,1.22,0,1.29-.81a2.17,2.17,0,0,0-1.67.23c-.52.3-1.23,1.15-1.83.82-.11-1.11-.71-1.31-.46-2.32a1.83,1.83,0,0,1,1.36-1.38c.73-.22,3.24-.45,3.15-2.25-.84-.19-1.75.16-2.59-.05-1.59-.4.19-1.12.93-1.15a18.32,18.32,0,0,0,2.8-.29.89.89,0,0,1,1.08.36c.44.71,0,1.09.07,1.9.83.15,1.25-.33,2-.5.09,1-.23,2.29.75,2.32a2.07,2.07,0,0,0,1.52,2.25c.88.06,1-1.21,1.63-1.8s1.69-.42,2.48-1a3.2,3.2,0,0,1,2.77-.89c0,.3.09.76.06,1.06,1.4.32,2.56-.33,3.89-.53a4,4,0,0,0,2.06-.91c.49-.51.73-1.26,1.3-1.68,1.5-1.12,2.73-.49,4.3-.87.59-.14.89-.63,1.45-.93a2.4,2.4,0,0,1,1.71-.16,3.14,3.14,0,0,1-.31.47c.74.37,2-1.25,2.76-1.62A10.91,10.91,0,0,1,107,136a15.52,15.52,0,0,1,4.43-.86,15.17,15.17,0,0,0,3.37-.06c.7-.16,1.35-.66,2-.81.44-.1,1.41.39,1.71-.25.22-.45-.1-1,0-1.46.38,0,.25.89.45,1.29.11.2.33.36.38.56a6,6,0,0,1,0,.85c.21,0,.52-.08.72.05s.25.64.56.53c.14-1-.61-1.31-.73-2.14-.08-.51,0-.83.37-.9s.29.18.58.57c.62.84.92-.38,1.57-.08.25.13.51.75.82.53s.19-.93.22-1.25c.4-.14.73-.47,1.11-.63s.68-.66,1.12-.87a7.47,7.47,0,0,1,1-.28c.18-.06.26-.27.49-.26s.35.19.55.17c.07.57-.11,1.09-.07,1.68.59.21,1.46.25,1.67-.83,0-.26-.05-.5.07-.74s.43-.27.6-.41c.32-.25.82-.88,1.18-.71,0,.11,0,.28,0,.39a3,3,0,0,0,1.88-.44c.33-.2.46-.36.82-.4s.54.18.82.16c0,.15,0,.39,0,.54s1.61-.39,1.73-.49c.52-.39.95-1,1.52-1.2,1.07-.39,2.14-.48,3-1.75a5,5,0,0,0,.66-1c.16-.46,0-.62.37-.88s1.33-.23,1.11-1.12c-.3-.06-.62,0-.92,0,0-.45.56-.73.73-1.14a6.41,6.41,0,0,0,.2-1.43,4.52,4.52,0,0,0-.17-1.33c-.06-.44.09-1-.12-1.41a1.74,1.74,0,0,0,.37-.84c-.1,0-.25-.07-.35,0-.1-.88.36-1.09.75-1.56a5.13,5.13,0,0,0,.62-.76c.1-.17.12-.39.27-.55-.35-.07-.39.27-.64.41s-.54-.08-.76-.36c-.51-.67-.27-1.38-.36-2.32-1.38-.48.53-2.3,1-2.58a7.15,7.15,0,0,1,2-1c.33,0,.47,0,.75-.31s.62-.76.94-1.13a10.85,10.85,0,0,1,1.31-1.39,1.78,1.78,0,0,1,.74-.48,2.11,2.11,0,0,0,.82-.17c.26-.16.4-.54.6-.8a.81.81,0,0,1,.82-.32c.41,0,1.22.3,1.3-.55C152.78,103.43,152.79,103.17,152.63,102.92Zm-69.4,23c-.42,0-.93-.09-1.4-.09a2.45,2.45,0,0,1,.81-.25,2.79,2.79,0,0,1,.79-1.62c.48-.41.72-.14,1.29-.06a26.73,26.73,0,0,1,2.78.35C87,126.19,84.31,126,83.23,126Zm44.33-3.38a.65.65,0,0,1-.35.39,9.36,9.36,0,0,1-1,.39,2.35,2.35,0,0,1-1.21.29c-.42,0-.71-.05-1,.29a1.7,1.7,0,0,0-.45.71c-.09.32,0,.49-.18.74s-.78.32-1.1.89c-.48.88-.51,2-1.41,1.82-.1-.42.44-1.5.72-1.45,0-.43-.25-.39-.42-.54.18-.51.53-.51.73-.87-.34-.63-.77-.09-1.16.11a5.07,5.07,0,0,1-2.09.18c.6-.89,1.67-.72,2.4-1s1.33-.47,2-.73c.44-.18.87-.49,1.31-.72s1,0,1.22-.3,0-.5.16-.74.3-.23.4-.29c.3-.17,1.53-1,1.77-.25A4.66,4.66,0,0,1,127.56,122.58Zm11.67-2.5a1,1,0,0,1-.13.2l0,.06,0,0a1.41,1.41,0,0,1-1.14.62,3.14,3.14,0,0,0-1.38.46c-.06.6.09,1-.3,1.38-.21.19-.83.35-1,0,.2-.44.69-.51.71-1.13-.28-.06-.9-.14-1.1.3s.06.84-.38,1.09-.78-.23-1.13-.09a1.3,1.3,0,0,0-.54,1.25c.21,0,.42,0,.63,0-.13.88-.33.73-.74.73a9.78,9.78,0,0,0-1,.11c-.83.12-1.39,1.22-2.3,1,.3-.42.79-.51,1.12-.79a5.75,5.75,0,0,0,.89-.94,3.35,3.35,0,0,1-.07-.37c.28-.18.24.21.43.3s.18,0,.4-.08.66-.36.74-.65c-.26,0-.49-.2-.73-.21.16-.29.71-.12.92-.5-.13,0-.12-.12-.2-.18.19-.28.9-.39.75-1-.3,0-.65.17-1,.1l0-.24a1.87,1.87,0,0,0-.91.13,8.08,8.08,0,0,1-1.1,0c.37-.55,1.17-.38,1.65-.47a3.39,3.39,0,0,0,1.66-.51c.29-.24.53-.74.87-.87a3.4,3.4,0,0,1,.84-.18c.4-.05,1.51.18,1.6-.69a7.45,7.45,0,0,1,1.38-.46,4.79,4.79,0,0,1,1.3.17C140,119.14,139.52,119.68,139.23,120.08Z"/><path class="cls-6" d="M69.72,129.94a.55.55,0,0,0-.13.46c.09,0,.3.06.37,0s.08-.29.18-.4a6.5,6.5,0,0,1,.68-.42c.28-.19.41-.47.72-.59a4.09,4.09,0,0,1,.92-.08c0-.35-.67-.43-.93-.4s-.32.12-.5.08-.31-.18-.5-.21-.81-.28-1.08-.09.1.3.25.39C70.23,129,70,129.58,69.72,129.94Z"/><path class="cls-6" d="M73.86,128.91c.4.15.54-.5.87-.6.16-.05.35,0,.51-.06a2.51,2.51,0,0,1,.49-.08c0-.27.06-.44-.18-.55-.51-.24-.67.09-1.1.28A.94.94,0,0,0,73.86,128.91Z"/><path class="cls-6" d="M53.68,133.8c0,.13-.16.38.07.4,0-.1,0-.36,0-.45s.26-.07.37-.22a1,1,0,0,0-.14-.85c-.18-.23-.41.24-.46.42S53.69,133.51,53.68,133.8Z"/><path class="cls-6" d="M54.25,135a3.57,3.57,0,0,0,.18.48c.06.16.13.34.32.33,0-.15,0-.31,0-.46.26-.06.27-.36.37-.55s.3-.36.24-.67c0-.1-.63,0-.7.09A1,1,0,0,0,54.25,135Z"/><path class="cls-6" d="M59.27,127c0,.16.11.22.14.39s0,.32,0,.47a.68.68,0,0,0,.54-.08c.18-.15.09-.24.39-.25s.71.11.93-.32a.62.62,0,0,1-.25-.28c-.07-.12,0-.3-.13-.4s-.56,0-.79,0S59.12,126.43,59.27,127Z"/><path class="cls-6" d="M62.24,125.12c0,.15-.08.36,0,.47.32.27.46-.28.65-.38s.3,0,.43,0,.24-.11.36-.15c0-.23,0-.49-.2-.59s-.47.23-.73.28-.32-.2-.5-.18C61.93,124.6,62.2,124.94,62.24,125.12Z"/><path class="cls-6" d="M61.17,125.06c-.13-.14-.13-.4-.25-.55a1.45,1.45,0,0,0-.58-.39c-.49,0-.08.86-.54.81-.07.16-.12.28,0,.42s.27,0,.44,0c.34-.06.49.34.87.25a3.13,3.13,0,0,0,0-.53"/><path class="cls-6" d="M107.08,108.93c.07.07.15.09.19.19s-.06.32,0,.42.35.23.44.27a.86.86,0,0,0,.5,0c0-.34-.06-.72,0-1.06s.43-.38.69-.57a.7.7,0,0,0,.25-.8c-.11-.4-.39-.12-.63,0-.45.24-1.11.29-1.13-.4,0-.29,0-.71-.18-.88s-.3-.07-.43-.15-.21-.25-.32-.32a1,1,0,0,0,.3.94c.14.14.44.35.42.58s-.39.52-.47.82A.89.89,0,0,0,107.08,108.93Z"/><path class="cls-6" d="M142.43,101.54c0,.24.33.35.39.6.37-.11.06-.74.22-1,.08-.12.29-.15.39-.26a3.43,3.43,0,0,0,.37-.54c.08-.13.15-.46,0-.57s-.39.14-.49.3a1.63,1.63,0,0,0-.2.47C143,100.91,142.35,101.05,142.43,101.54Z"/><path class="cls-6" d="M138,102.35a.85.85,0,0,0,.52,0,2,2,0,0,1,.45-.19c.19,0,.52-.18.56-.44s-.28,0-.4.1a1,1,0,0,1-.88.15c-.44-.13-.67-1-1.25-.8a1.82,1.82,0,0,0,0,.52c.27.15.43.13.63.4A.42.42,0,0,0,138,102.35Z"/><path class="cls-6" d="M140.8,102.22a2.16,2.16,0,0,0,.75-.08c0-.25-.08-.33-.12-.53s.11-.48,0-.67c-.2,0-.37-.06-.49.12S140.25,102,140.8,102.22Z"/><path class="cls-6" d="M135,102.69c.16.1.46-.07.64,0s.22.22.37.29a1,1,0,0,0,.56,0c-.16-.21-.48-.32-.64-.58s-.16-.39-.28-.57-.33-.73-.66-.54-.06.52-.06.72S134.79,102.56,135,102.69Z"/><path class="cls-7" d="M142.64,27.16,90,2.93,37.36,27.16H23.53v78.07a56.94,56.94,0,0,0,27.15,48.53L90,177.9l39.32-24.14a56.94,56.94,0,0,0,27.15-48.53V27.16Z"/><path class="cls-8" d="M55.89,145.26a47.28,47.28,0,0,1-22.39-40V37.13h6L90,13.91l50.45,23.22h6.05v68.1a47.28,47.28,0,0,1-22.39,40L90,166.2Z"/><path class="cls-9" d="M90,9.73l50.05,23,1.23.57h9v71.89a50.77,50.77,0,0,1-24.2,43.26L90,170.65,53.91,148.49a50.77,50.77,0,0,1-24.2-43.26V33.34h9L40,32.77,90,9.73m0-6.8L37.36,27.16H23.53v78.07a56.94,56.94,0,0,0,27.15,48.53L90,177.9l39.32-24.14a56.94,56.94,0,0,0,27.15-48.53V27.16H142.64L90,2.93Z"/><path class="cls-10" d="M61.14,72.75l0-7.58L57.4,71.42H56.09l-3.7-6.09v7.42H49.64V60.12h2.42L56.79,68l4.66-7.85h2.4l0,12.63Z"/><path class="cls-10" d="M75.21,70H69.34l-1.12,2.71h-3l5.63-12.63h2.89l5.65,12.63H76.32Zm-.93-2.22-2-4.83-2,4.83Z"/><path class="cls-10" d="M80.71,60.12h5.74a8.12,8.12,0,0,1,3.64.78,5.84,5.84,0,0,1,2.45,2.21,6.72,6.72,0,0,1,0,6.65A5.91,5.91,0,0,1,90.09,72a8.12,8.12,0,0,1-3.64.78H80.71Zm5.6,10.23a4.25,4.25,0,0,0,3-1,4.2,4.2,0,0,0,0-5.73,4.25,4.25,0,0,0-3-1H83.64v7.83Z"/><path class="cls-10" d="M105.41,70.41v2.34H95.62V60.12h9.55v2.34H98.53v2.75h5.87v2.27H98.53v2.93Z"/><path class="cls-10" d="M112.85,60.12h2.92V72.75h-2.92Z"/><path class="cls-10" d="M130.36,60.12V72.75H128l-6.3-7.67v7.67h-2.89V60.12h2.42l6.28,7.67V60.12Z"/><path class="cls-11" d="M78.32,128.56v26.88l-7.67-4.7a26.52,26.52,0,0,1-6-5.09,5.32,5.32,0,0,1-1.28-3.48V128.56Zm4.2,0V158l7.48,4.6,7.48-4.6V128.56Zm19.16,0v26.88l7.67-4.7a26.31,26.31,0,0,0,6-5.09,5.27,5.27,0,0,0,1.28-3.48V128.56Z"/><g class="cls-12"><path class="cls-13" d="M102.76,137.24v-7.6h12.8v7.65C111.48,137.1,107.19,137.08,102.76,137.24Zm-9.09.56,2.73-.22v-7.94H83.6V139Q88.51,138.26,93.67,137.8Zm-16.43,2.27V129.64H64.44v13.47C68.42,142,72.71,140.93,77.24,140.07Z"/></g><path class="cls-14" d="M90,19.55l3.26,10h10.56L95.28,35.8l3.26,10L90,39.63l-8.54,6.21,3.26-10-8.54-6.21H86.74ZM114.56,35.8H108l5.27,3.83-2,6.21L116.58,42l5.27,3.84-2-6.21,5.28-3.83h-6.53l-2-6.21Zm-53.15,0H54.88l5.28,3.83-2,6.21L63.42,42l5.28,3.84-2-6.21L72,35.8H65.44l-2-6.21Z"/><polygon class="cls-14" points="137.71 42.95 133.68 42.95 136.94 45.32 135.69 49.16 138.95 46.78 142.22 49.16 140.97 45.32 144.23 42.95 140.2 42.95 138.95 39.12 137.71 42.95"/><polygon class="cls-14" points="39.8 42.95 35.77 42.95 39.03 45.32 37.78 49.16 41.05 46.78 44.31 49.16 43.06 45.32 46.32 42.95 42.29 42.95 41.05 39.12 39.8 42.95"/><path class="cls-15" d="M131.05,90.48l-25.67,9.57L91.67,78.43l0,0a1.86,1.86,0,0,0-.27-.29,3.5,3.5,0,0,0-.28-.27l0,0c-.09,0-.19-.06-.28-.1a2,2,0,0,0-.4-.16,7.22,7.22,0,0,0-.76,0,2.62,2.62,0,0,0-.39.15,2.49,2.49,0,0,0-.29.11l0,0a2.2,2.2,0,0,0-.27.26,1.58,1.58,0,0,0-.28.3l0,0L74.62,100.05,49,90.48a2,2,0,0,0-2.16.53,2,2,0,0,0-.31,2.21l14.33,28.9a2,2,0,0,0,1.77,1.09h54.84a2,2,0,0,0,1.77-1.09l14.33-28.9a2,2,0,0,0-.31-2.21A2,2,0,0,0,131.05,90.48ZM74.74,104.32a2,2,0,0,0,2.35-.8L90,83.18l12.91,20.34a2,2,0,0,0,2.35.8l22.5-8.39-2.1,4.24-23,8.76-11-17.88,0,0a1.82,1.82,0,0,0-.27-.29,1.86,1.86,0,0,0-.29-.27l0,0c-.09,0-.18-.06-.26-.1a2,2,0,0,0-.41-.15,6.85,6.85,0,0,0-.74,0,2.48,2.48,0,0,0-.41.15,2,2,0,0,0-.26.1l0,0a2,2,0,0,0-.3.28,1.73,1.73,0,0,0-.26.28l0,0-11,17.88-23-8.76-2.1-4.24Zm41.45,14.94H63.81l-6.88-13.87,20.51,7.81a1.93,1.93,0,0,0,.7.13,2,2,0,0,0,1.69-.94L90,95.86l10.17,16.53a2,2,0,0,0,1.69.94,1.93,1.93,0,0,0,.7-.13l20.51-7.81Z"/></svg>